<svg xmlns="http://www.w3.org/2000/svg" viewBox="0 0 500 500" width="500" height="500"><defs></defs><g>
<g>
	<g>
		<path d="M250,0C387.946194,0 500,112.053806 500,250 C500,387.946194 387.946194,500 250,500 C112.053806,500 0,387.946194 0,250 C0,112.053806 112.053806,0 250,0 Z" transform="matrix(1,0,0,1,0,0)" fill="#ffffff"/>
		<g transform="matrix(4.087622651,0,0,4.087622651,-771.905662635,-765.81579971)">
			<path d="M250,270C255,270.000247 265,255 255,255.122085 C255,255.122085 245,255 245,255 C235,255 245,269.999751 250,270 Z" transform="matrix(1,0,0,1,0,0)" fill="#ff7700"/>
			<g>
				<g>
					<path d="M235,242.041312C237.942433,242.041312 240.332574,244.263871 240.332574,247 C240.332574,249.736129 237.942433,251.958688 235,251.958688 C232.057567,251.958688 229.667426,249.736129 229.667426,247 C229.667426,244.263871 232.057567,242.041312 235,242.041312 Z" transform="matrix(1,0,0,1,0,0)" fill="#000000"/>
					<path d="M232.200267,244.958658C232.763458,244.958658 233.220938,245.416138 233.220938,245.979329 C233.220938,246.54252 232.763458,247 232.200267,247 C231.637076,247 231.179596,246.54252 231.179596,245.979329 C231.179596,245.416138 231.637076,244.958658 232.200267,244.958658 Z" transform="" fill="#ffffff"/>
				</g>
				<g transform="matrix(1,0,0,1,30,0)">
					<path d="M235,242.041312C237.942433,242.041312 240.332574,244.263871 240.332574,247 C240.332574,249.736129 237.942433,251.958688 235,251.958688 C232.057567,251.958688 229.667426,249.736129 229.667426,247 C229.667426,244.263871 232.057567,242.041312 235,242.041312 Z" transform="matrix(1,0,0,1,0,0)" fill="#000000"/>
					<path d="M232.200267,244.958658C232.763458,244.958658 233.220938,245.416138 233.220938,245.979329 C233.220938,246.54252 232.763458,247 232.200267,247 C231.637076,247 231.179596,246.54252 231.179596,245.979329 C231.179596,245.416138 231.637076,244.958658 232.200267,244.958658 Z" transform="" fill="#ffffff"/>
				</g>
			</g>
			<path d="M250,206.740741C274.850751,206.740741 295,225 295,250 C295,275 265,275 265,275 C265,275 280,265 280,250 C280,240 275,230 265,230 C255,230 250,240 250,240 C250,240 245,230 235,230 C225,230 220,240 220,250 C220,265 235,275 235,275 C235,275 205,275 205,250 C205,225 225.149249,206.740741 250,206.740741 Z" transform="" fill="#000000"/>
		</g>
		<g transform="matrix(4.087622651,0,0,4.087622651,-771.905662635,-765.81579971)">
			<path d="M250,282.5C255.119887,282.5 259.278775,285.861614 259.278775,290 C259.278775,294.138386 255.119887,297.5 250,297.5 C244.880113,297.5 240.721225,294.138386 240.721225,290 C240.721225,285.861614 244.880113,282.5 250,282.5 Z" transform="matrix(1,0,0,1,0,0)" fill="#ff0000"/>
			<path d="M256,283C256,283 261.183978,283 261.183978,290 C261.183978,297 256,297 256,297 C265.511247,297 277.400306,310 277.400306,290 C277.400306,270 265.511247,283 256,283 Z" transform="matrix(1,0,0,1,0,0)" fill="#ff0000"/>
			<path d="M244,283C244,283 238.816022,283 238.816022,290 C238.816022,297 244,297 244,297 C234.488753,297 222.599694,310 222.599694,290 C222.599694,270 234.488753,283 244,283 Z" transform="matrix(1,0,0,1,0,0)" fill="#ff0000"/>
		</g>
		<g transform="matrix(4.087622651,0,0,4.087622651,-781.77024833,-757.860488666)">
			<g transform="matrix(0.626913361,0.20852252,-0.20852252,0.626913361,151.777844667,47.136552969)">
				<path d="M238.38,185.734316C238.38,185.734316 238.38,189.589834 250,189.589834 C261.62,189.589834 261.62,185.734316 261.62,185.734316 C261.62,185.734316 265,184 268,184 C271,184 265,194.11257 250,194.11257 C235,194.11257 229,184 232,184 C235,184 238.38,185.734316 238.38,185.734316 Z" transform="matrix(1,0,0,1,0,0)" fill="#ffffff" stroke="#ffffff" stroke-width="4"/>
				<path d="M238.38,185.734316C238.38,185.734316 238.38,189.589834 250,189.589834 C261.62,189.589834 261.62,185.734316 261.62,185.734316 C261.62,170.791318 283.2,152.11257 250,152.11257 C216.8,152.11257 238.38,170.791318 238.38,185.734316 Z" transform="matrix(1,0,0,1,0,0)" fill="#000000" stroke="#ffffff" stroke-width="4"/>
			</g>
			<g transform="matrix(0.626913361,0.20852252,-0.20852252,0.626913361,151.777844667,47.136552969)">
				<path d="M238.38,185.734316C238.38,185.734316 238.38,189.589834 250,189.589834 C261.62,189.589834 261.62,185.734316 261.62,185.734316 C261.62,185.734316 265,184 268,184 C271,184 265,194.11257 250,194.11257 C235,194.11257 229,184 232,184 C235,184 238.38,185.734316 238.38,185.734316 Z" transform="matrix(1,0,0,1,0,0)" fill="#000000"/>
				<path d="M238.38,185.734316C238.38,185.734316 238.38,189.589834 250,189.589834 C261.62,189.589834 261.62,185.734316 261.62,185.734316 C261.62,170.791318 283.2,152.11257 250,152.11257 C216.8,152.11257 238.38,170.791318 238.38,185.734316 Z" transform="matrix(1,0,0,1,0,0)" fill="#000000"/>
				<path d="M238.38,185.734316C238.38,185.734316 238.38,189.589834 250,189.589834 C261.62,189.589834 261.62,185.734316 261.62,185.734316 C261.62,184.998669 261.672302,184.253969 261.767794,183.502889 C261.767794,183.502889 261.62,186.11257 250,186.11257 C238.38,186.11257 238.23277,183.507323 238.23277,183.507323 C238.327904,184.2569 238.38,185.000117 238.38,185.734316 Z" transform="matrix(1,0,0,1,0,0)" fill="#ff0000"/>
			</g>
		</g>
	</g>
</g></g></svg>